<svg id="SvgjsSvg1050" width="360" height="275" xmlns="http://www.w3.org/2000/svg" version="1.1" xmlns:xlink="http://www.w3.org/1999/xlink" xmlns:svgjs="http://svgjs.com/svgjs"><defs id="SvgjsDefs1051"><svg width="110px" height="110px" xmlns="http://www.w3.org/2000/svg" xmlns:xlink="http://www.w3.org/1999/xlink" version="1.1" x="0px" y="0px" viewBox="0 0 100 100" enable-background="new 0 0 100 100" id="a1496586692398"><path old_fill="#000000" d="M87.413,49.639c-2.72,0-5.087,1.444-6.426,3.595l-19.56-4.984c0.038-0.397,0.061-0.799,0.061-1.206  c0-3.473-1.408-6.618-3.684-8.894l3.092-5.34l8.388,2.682c0.363,1.502,1.6,2.707,3.222,2.941c2.128,0.307,4.102-1.169,4.41-3.297  c0.307-2.128-1.169-4.102-3.297-4.41c-1.182-0.171-2.305,0.222-3.133,0.958l-7.543-2.412l4.236-7.314  c0.234,0.057,0.456,0.139,0.699,0.174c4.147,0.599,7.994-2.277,8.593-6.424c0.599-4.147-2.277-7.994-6.425-8.593  c-4.147-0.599-7.994,2.277-8.593,6.424c-0.36,2.493,0.552,4.862,2.224,6.498L54.544,35.81c-1.697-0.853-3.606-1.344-5.634-1.344  c-2.898,0-5.559,0.99-7.686,2.637l-2.376-2.719l3.426-9.256c1.516-0.295,2.776-1.477,3.083-3.087  c0.403-2.112-0.983-4.151-3.095-4.553c-2.112-0.403-4.151,0.983-4.553,3.095c-0.224,1.173,0.118,2.313,0.816,3.173l-2.667,7.207  l-7.388-8.453c0.616-0.987,1.04-2.112,1.145-3.351c0.354-4.175-2.744-7.846-6.919-8.2c-4.175-0.354-7.846,2.744-8.2,6.919  c-0.354,4.175,2.744,7.846,6.919,8.2c1.487,0.126,2.901-0.202,4.133-0.844l3.748,4.288l-12.251,2.543  c-0.398-0.42-0.884-0.768-1.464-0.982c-2.017-0.745-4.256,0.285-5.001,2.302c-0.745,2.017,0.285,4.256,2.302,5.001  c2.017,0.745,4.256-0.285,5.001-2.302c0.015-0.04,0.018-0.081,0.031-0.122l14.399-2.989l6.162,7.05  c-1.352,2.005-2.141,4.421-2.141,7.021c0,1.171,0.172,2.3,0.472,3.375l-17.778,8.48c-1.119-1.823-2.97-3.181-5.247-3.543  c-4.138-0.658-8.026,2.163-8.684,6.301s2.163,8.026,6.301,8.684c4.138,0.658,8.026-2.163,8.684-6.301  c0.067-0.423,0.075-0.839,0.072-1.253l18.313-8.735c1.895,2.82,4.905,4.816,8.396,5.389l0.278,4.19l-9.156,3.731  c-0.425-0.322-0.918-0.566-1.471-0.693c-2.095-0.482-4.185,0.826-4.666,2.922c-0.482,2.095,0.826,4.185,2.922,4.666  c2.095,0.482,4.185-0.826,4.666-2.922c0.02-0.089,0.019-0.177,0.034-0.266l7.951-3.24l0.702,10.573  c-2.168,0.915-3.889,2.806-4.457,5.275c-0.939,4.083,1.61,8.155,5.694,9.094c4.083,0.939,8.155-1.61,9.094-5.694  c0.939-4.083-1.61-8.155-5.694-9.094c-0.224-0.051-0.445-0.054-0.668-0.084l-1.225-18.443c4.287-0.67,7.855-3.495,9.553-7.342  l3.898,0.993l0.669,8.978c-1.016,0.702-1.685,1.873-1.685,3.202c0,2.15,1.743,3.893,3.893,3.893c2.15,0,3.893-1.743,3.893-3.893  c0-1.506-0.865-2.798-2.116-3.445l-0.574-7.695l11.447,2.917c-0.001,0.056-0.016,0.107-0.016,0.163c0,4.19,3.397,7.587,7.587,7.587  c4.19,0,7.587-3.397,7.587-7.587C95,53.036,91.603,49.639,87.413,49.639z"></path></svg><!--?xml version="1.0"?-->
<svg width="761.51529411765px" height="293.17647058823px" id="t1496586692398"><path fill="#ffffff" d="M44.225882352941,38.357647058824c0.31058823529412,0.77647058823529,0.38823529411765,1.7082352941176,0.38823529411765,2.64c0,2.1741176470588-0.46588235294117,4.6588235294117-0.46588235294117,6.5223529411764c-1.1647058823529,0.077647058823529-2.2517647058823,0.38823529411765-3.4164705882353,0.38823529411765c-0.38823529411765,0-0.69882352941176,0-1.0870588235294-0.077647058823529c2.0188235294118,8.8517647058823,3.3388235294117,20.188235294118,4.2705882352941,28.962352941176c2.3294117647059-11.569411764706,5.5129411764706-24.847058823529,8.6188235294117-35.484705882353c0.69882352941176-2.3294117647059,0.62117647058823-2.7176470588235,6.2894117647058-2.7176470588235c1.8635294117647,0,3.8823529411765,0.077647058823529,5.2023529411764,0.077647058823529l0.85411764705882,0c2.1741176470588,0,2.0188235294118,1.32,3.2611764705882,4.1929411764706c3.6494117647059,10.404705882353,4.4258823529412,22.828235294118,7.1435294117647,34.55294117647c1.32-3.0282352941176,1.32-5.5905882352941,2.0188235294118-8.8517647058823c1.5529411764706-7.5317647058823,3.1835294117647-13.044705882353,4.2705882352941-21.12c-0.93176470588235,0.15529411764706-2.0188235294118,0.31058823529412-3.1835294117647,0.31058823529412c-1.0094117647059,0-2.0188235294118-0.15529411764706-2.9505882352941-0.5435294117647c0.077647058823529-0.23294117647059,0.15529411764706-0.69882352941176,0.15529411764706-1.32c0-1.6305882352941-0.31058823529412-4.1929411764706-0.31058823529412-5.9011764705882c0-1.5529411764706,0.15529411764706-1.8635294117647,1.1647058823529-1.8635294117647c3.1835294117647,0,7.0658823529411,0.85411764705882,9.4729411764705,0.85411764705882c2.9505882352941,0,5.8235294117647-0.38823529411765,8.2305882352941-0.38823529411765c1.5529411764706,0,2.8729411764706,0.077647058823529,4.0376470588235,0.46588235294117c0.077647058823529,1.0094117647059,0.15529411764706,2.0964705882353,0.15529411764706,3.1835294117647c0,3.5717647058823,0.38823529411765,5.5905882352941-3.1835294117647,5.5905882352941l-0.38823529411765,0c-1.32,7.1435294117647-4.115294117647,13.355294117647-6.2117647058823,20.809411764706c-1.5529411764706,5.5129411764706-2.3294117647059,11.957647058823-3.96,16.694117647059c-1.0094117647059,2.8729411764706-0.85411764705882,6.5223529411764-2.4070588235294,7.92c-3.1058823529412,0.23294117647059-7.4541176470588,0.46588235294117-10.715294117647,0.46588235294117c-2.64,0-4.5035294117647-0.15529411764706-4.6588235294117-0.5435294117647c-3.1058823529412-10.870588235294-4.8917647058823-25.856470588235-7.3764705882353-35.87294117647c-2.5623529411765,10.715294117647-6.3670588235294,24.070588235294-7.7647058823529,35.950588235294c-0.38823529411765,0.38823529411765-0.93176470588235,0.5435294117647-1.5529411764706,0.5435294117647c-1.3976470588235,0-3.0282352941176-0.46588235294117-3.8823529411765-0.46588235294117c-2.4847058823529,0-4.8141176470588,0.5435294117647-7.3764705882353,0.5435294117647c-0.69882352941176,0-1.3976470588235-0.077647058823529-2.0964705882353-0.15529411764706c-0.15529411764706,0.077647058823529-0.23294117647059,0.077647058823529-0.31058823529412,0.077647058823529c-0.31058823529412,0-0.46588235294117-0.31058823529412-0.69882352941176-0.5435294117647c-5.2023529411764-15.374117647059-7.7647058823529-32.301176470588-11.258823529412-45.268235294117c-1.32,0-2.795294117647,0.31058823529412-3.8047058823529,0.31058823529412c-0.69882352941176,0-1.0870588235294-0.15529411764706-1.0870588235294-0.5435294117647c0-0.62117647058823,0.23294117647059-1.5529411764706,0.23294117647059-2.5623529411765c0-1.7858823529412-0.23294117647059-3.8047058823529-0.23294117647059-5.2023529411764c0-1.6305882352941,1.0094117647059-1.8635294117647,2.0188235294118-1.8635294117647c1.3976470588235,0,2.9505882352941,0.31058823529412,4.8141176470588,0.31058823529412c1.3976470588235,0,2.8729411764706-0.077647058823529,4.4258823529412-0.077647058823529c0.77647058823529,0,1.5529411764706,0.077647058823529,2.4070588235294,0.077647058823529c2.64,0,5.3576470588235-0.15529411764706,7.92-0.15529411764706c1.0094117647059,0,2.0188235294118,0,3.0282352941176,0.077647058823529z M100.90823529412,93.72c0.077647058823529-1.4752941176471,0-5.9011764705882-0.15529411764706-9.0070588235294c1.0870588235294-1.7082352941176,3.7270588235294-1.3976470588235,5.6682352941176-0.69882352941176c0.77647058823529-11.491764705882-1.7858823529412-22.595294117647-0.5435294117647-36.105882352941c-1.8635294117647-0.077647058823529-4.2705882352941,0.46588235294117-5.435294117647-0.23294117647059c-0.31058823529412-1.2423529411765,0.077647058823529-2.9505882352941-0.077647058823529-5.1247058823529c-0.077647058823529-1.1647058823529-0.23294117647059-2.4070588235294,0-3.4164705882353c0.31058823529412-0.46588235294117,0.31058823529412-0.31058823529412,0.77647058823529-0.62117647058823c0.85411764705882-0.23294117647059,2.795294117647,0.077647058823529,3.6494117647059,0c9.0847058823529-0.31058823529412,16.461176470588-0.69882352941176,25.623529411765,0.15529411764706c5.1247058823529,0.46588235294117,10.792941176471,1.7858823529412,14.364705882353,4.115294117647c3.8047058823529,2.4847058823529,7.2211764705882,6.4447058823529,8.7741176470588,10.637647058823c1.7858823529412,5.3576470588235,1.6305882352941,15.296470588235,0.077647058823529,20.498823529412c-0.77647058823529,5.5905882352941-3.0282352941176,8.7741176470588-5.5905882352941,12.656470588235c-1.7082352941176,2.5623529411765-5.9011764705882,5.435294117647-9.5505882352941,6.1341176470588c-2.2517647058823,0.5435294117647-5.1247058823529,0.69882352941176-7.6094117647058,1.1647058823529c-5.1247058823529,1.0870588235294-11.569411764706-0.23294117647059-16.616470588235,0c-4.9694117647059,0.31058823529412-9.0847058823529,1.0870588235294-13.355294117647-0.15529411764706z M134.91764705882,81.917647058823c3.0282352941176-1.4752941176471,4.5035294117647-5.3576470588235,5.2023529411764-9.3176470588235c1.1647058823529-7.2988235294117,0.38823529411765-15.684705882353-2.9505882352941-19.722352941176c-2.4847058823529-2.0964705882353-5.5129411764706-4.3482352941176-9.0070588235294-4.5035294117647c-3.3388235294117-0.15529411764706-6.2117647058823-0.69882352941176-9.0070588235294,0.46588235294117c-0.93176470588235,12.345882352941,0.23294117647059,25.157647058823,0.31058823529412,36.028235294117c5.5905882352941,0.46588235294117,10.56,0.38823529411765,15.451764705882-2.9505882352941z M194.70588235294,38.435294117647c2.9505882352941,4.7364705882353,3.8823529411765,10.56,6.2117647058823,15.607058823529c2.1741176470588,4.6588235294117,3.4941176470588,9.0070588235294,5.435294117647,14.054117647059c2.0188235294118,4.8141176470588,4.3482352941176,10.094117647059,6.2894117647058,15.529411764706c1.7858823529412-0.077647058823529,3.2611764705882,0.077647058823529,4.4258823529412,0.15529411764706c0.93176470588235,0.077647058823529,0.077647058823529,1.6305882352941,0.31058823529412,3.0282352941176c0.38823529411765,2.0964705882353,0.5435294117647,5.5129411764706,0.077647058823529,6.5223529411764c-1.0870588235294,0.77647058823529-2.1741176470588,0.077647058823529-3.3388235294117,0c-7.0658823529411-0.5435294117647-12.578823529412-0.15529411764706-20.03294117647,0.31058823529412c-0.31058823529412-0.46588235294117-1.2423529411765-0.23294117647059-1.7858823529412-0.46588235294117c-0.46588235294117-2.795294117647,0.38823529411765-6.2894117647058,0.15529411764706-8.8517647058823c1.7858823529412-0.38823529411765,2.0964705882353,0.38823529411765,4.4258823529412-0.077647058823529c-1.0870588235294-2.9505882352941-0.77647058823529-4.8917647058823-2.3294117647059-7.3764705882353c-4.7364705882353-0.15529411764706-13.2-0.31058823529412-16.383529411765-0.077647058823529c-1.2423529411765,1.3976470588235-1.2423529411765,4.5035294117647-2.7176470588235,6.9882352941176c1.6305882352941,1.0870588235294,3.5717647058823-0.93176470588235,4.8141176470588,0.46588235294117c0.93176470588235,0.85411764705882,0,4.0376470588235,0,5.0470588235294c0,1.0870588235294,0.85411764705882,3.2611764705882,0.5435294117647,3.96c-0.62117647058823,1.1647058823529-6.2894117647058,0.46588235294117-8.075294117647,0.38823529411765c-3.8823529411765-0.38823529411765-7.92,0-11.647058823529,0.15529411764706c-0.85411764705882,0.077647058823529-2.795294117647,0.077647058823529-3.3388235294117-0.5435294117647c-0.38823529411765-0.46588235294117-0.31058823529412-1.8635294117647-0.38823529411765-2.0964705882353c-0.15529411764706-1.0094117647059-0.077647058823529-2.795294117647,0-4.0376470588235c0-0.85411764705882-0.5435294117647-1.6305882352941,0-2.3294117647059c0.69882352941176-0.69882352941176,3.4164705882353,0.077647058823529,3.8823529411765-0.46588235294117c1.2423529411765-1.4752941176471,2.4847058823529-6.4447058823529,3.3388235294117-8.4635294117647c1.32-3.0282352941176,2.64-5.6682352941176,3.6494117647059-8.5411764705882c1.7082352941176-4.5811764705882,4.5811764705882-9.1623529411764,6.3670588235294-14.209411764706c1.7082352941176-5.28,3.5717647058823-10.327058823529,5.6682352941176-14.752941176471c3.96-0.5435294117647,10.327058823529-0.38823529411765,14.442352941176,0.077647058823529z M183.13647058823,65.767058823529c1.8635294117647-0.31058823529412,5.5129411764706,0.46588235294117,8.1529411764705,0c-0.93176470588235-4.7364705882353-1.6305882352941-10.404705882353-3.5717647058823-14.209411764706c-1.1647058823529,4.6588235294117-3.4164705882353,10.171764705882-4.5811764705882,14.209411764706z M279.26352941176,38.590588235294c0,2.4070588235294,0.5435294117647,5.0470588235294,0.5435294117647,6.9882352941176c0,1.1647058823529,0,1.9411764705882-1.1647058823529,1.9411764705882c-0.93176470588235,0-1.7858823529412-0.46588235294117-2.795294117647-0.46588235294117c-1.8635294117647,0-1.3976470588235,1.9411764705882-1.3976470588235,3.1058823529412c0,2.795294117647,0.31058823529412,5.435294117647,0.31058823529412,8.5411764705882c0,4.115294117647-0.5435294117647,7.9976470588235-0.5435294117647,11.957647058823c0,4.7364705882353,0.23294117647059,9.3176470588235,0.23294117647059,13.743529411765c0,2.795294117647-0.077647058823529,5.5129411764706-0.38823529411765,8.1529411764705c-1.7858823529412,1.7858823529412-8.2305882352941,1.0870588235294-10.482352941176,1.0870588235294c-8.7741176470588-10.094117647059-16.849411764706-21.35294117647-24.458823529412-32.689411764706c-0.31058823529412,2.1741176470588-0.38823529411765,4.4258823529412-0.38823529411765,6.6776470588235c0,3.8047058823529,0.23294117647059,7.6094117647058,0.23294117647059,11.181176470588c0,1.9411764705882,0,3.7270588235294-0.23294117647059,5.5129411764706c0.46588235294117,0.15529411764706,0.93176470588235,0.23294117647059,1.4752941176471,0.23294117647059c0.85411764705882,0,1.7858823529412-0.15529411764706,2.5623529411765-0.15529411764706c0.85411764705882,0,1.5529411764706,0.23294117647059,2.0964705882353,1.0870588235294c-0.15529411764706,0.38823529411765-0.23294117647059,1.0094117647059-0.23294117647059,1.6305882352941c0,1.0870588235294,0.15529411764706,2.4847058823529,0.15529411764706,3.6494117647059c0,1.7082352941176,0,2.4847058823529-1.9411764705882,2.4847058823529c-1.5529411764706,0-3.1058823529412-0.46588235294117-4.8141176470588-0.46588235294117c-1.3976470588235,0-2.8729411764706,0.62117647058823-4.9694117647059,0.62117647058823c-2.3294117647059,0-4.9694117647059-0.23294117647059-7.3764705882353-0.23294117647059c-1.6305882352941,0-3.1835294117647,0.077647058823529-4.5035294117647,0.38823529411765c0.077647058823529-0.46588235294117,0.077647058823529-0.93176470588235,0.077647058823529-1.5529411764706c0-1.7858823529412-0.31058823529412-4.115294117647-0.31058823529412-5.6682352941176c0-1.8635294117647,0.69882352941176-1.7858823529412,3.2611764705882-1.7858823529412c1.0094117647059,0,2.0188235294118,0.077647058823529,2.8729411764706,0.38823529411765c0.31058823529412-3.1058823529412,0.38823529411765-6.2894117647058,0.38823529411765-9.4729411764705c0-7.3764705882353-0.5435294117647-14.752941176471-0.5435294117647-21.508235294118c0-1.9411764705882,0-3.8047058823529,0.15529411764706-5.6682352941176c-0.62117647058823-0.62117647058823-1.32-0.77647058823529-2.0964705882353-0.77647058823529c-1.1647058823529,0-2.3294117647059,0.38823529411765-3.4164705882353,0.38823529411765c-0.77647058823529,0-1.4752941176471-0.15529411764706-2.0188235294118-0.69882352941176c0.62117647058823-3.3388235294117-0.69882352941176-7.9976470588235,1.8635294117647-9.24c1.4752941176471,0.5435294117647,3.1835294117647,0.69882352941176,4.9694117647059,0.69882352941176c2.4070588235294,0,5.0470588235294-0.31058823529412,7.4541176470588-0.31058823529412c1.4752941176471,0,2.9505882352941,0.077647058823529,4.2705882352941,0.46588235294117c7.9976470588235,10.792941176471,16.694117647059,21.585882352941,25.002352941176,31.990588235294c0.31058823529412-1.7858823529412,0.46588235294117-3.7270588235294,0.46588235294117-5.7458823529411c0-5.0470588235294-0.77647058823529-10.637647058823-0.77647058823529-16.383529411765l0-1.0870588235294c-0.38823529411765-0.077647058823529-0.69882352941176-0.077647058823529-1.0870588235294-0.077647058823529c-0.77647058823529,0-1.5529411764706,0.15529411764706-2.2517647058823,0.15529411764706s-1.32-0.15529411764706-1.8635294117647-0.93176470588235c0.38823529411765-2.3294117647059,0.23294117647059-5.435294117647,0.31058823529412-7.6094117647058c0.077647058823529-0.62117647058823,1.32-0.69882352941176,2.7176470588235-0.69882352941176l1.1647058823529,0c2.0188235294118,0,4.5811764705882-0.15529411764706,7.2211764705882-0.15529411764706c3.7270588235294,0,7.6870588235294,0.15529411764706,10.249411764706,0.31058823529412z"></path></svg>
<!--?xml version="1.0"?-->
<svg width="263.6196px" height="30.4px" id="s1496586692398"><path fill="#ffffff" d="M1.241,8.364l2.992,10.659l0.034,0l3.043-10.659l1.428,0l3.043,10.659l0.034,0l2.992-10.659l1.156,0l-3.502,12.019l-0.017,0.017l-1.36,0l-3.043-10.71l-0.034,0l-3.043,10.71l-1.377,0l-3.502-12.036l1.156,0z M22.8378,15.81q0-1.071-0.799-1.8105t-1.938-0.7395q-1.105,0-1.904,0.7395t-0.935,1.8105l5.576,0z M20.1688,12.342q1.632,0,2.652,1.054t1.037,2.72l0,0.612l-6.596,0q0.068,1.326,0.8755,2.1335t2.0995,0.8245q0.799,0,1.5215-0.3825t1.1135-1.0115l0.748,0.629q-1.105,1.683-3.4,1.683q-1.802-0.017-2.8815-1.173t-1.0965-2.975q0-1.768,1.1135-2.9325t2.8135-1.1815z M26.1086,16.473q0,1.36,0.9775,2.2695t2.3035,0.9435q1.377,0,2.244-0.9265t0.867-2.2865q0-1.394-0.8755-2.3035t-2.2525-0.9095q-1.343,0-2.2865,0.9265t-0.9775,2.2865z M25.1906,7.548l1.02,0l0,6.375l0.034,0q0.442-0.765,1.309-1.173t1.836-0.408q1.836,0,2.9835,1.19t1.1475,2.941q0,1.819-1.173,2.9665t-2.958,1.1645q-1.003,0-1.8785-0.442t-1.2665-1.139l-0.034,0l0,1.377l-1.02,0l0-12.852z  M42.4252,19.38q2.584,0,4.08-1.309t1.513-3.604q0-2.448-1.4875-3.757t-4.1565-1.326l-2.346,0l0,9.996l2.397,0z M42.6632,8.364q3.026,0,4.7345,1.632t1.7425,4.471q0,1.666-0.7565,3.0175t-2.176,2.1335t-3.4765,0.782l-3.825,0l0-12.036l3.757,0z M56.797,15.81q0-1.071-0.799-1.8105t-1.938-0.7395q-1.105,0-1.904,0.7395t-0.935,1.8105l5.576,0z M54.128,12.342q1.632,0,2.652,1.054t1.037,2.72l0,0.612l-6.596,0q0.068,1.326,0.8755,2.1335t2.0995,0.8245q0.799,0,1.5215-0.3825t1.1135-1.0115l0.748,0.629q-1.105,1.683-3.4,1.683q-1.802-0.017-2.8815-1.173t-1.0965-2.975q0-1.768,1.1135-2.9325t2.8135-1.1815z M59.4218,12.546l2.618,6.749l2.55-6.749l1.037,0l-3.094,7.854l-1.054,0l-3.213-7.854l1.156,0z M72.6716,15.81q0-1.071-0.799-1.8105t-1.938-0.7395q-1.105,0-1.904,0.7395t-0.935,1.8105l5.576,0z M70.0026,12.342q1.632,0,2.652,1.054t1.037,2.72l0,0.612l-6.596,0q0.068,1.326,0.8755,2.1335t2.0995,0.8245q0.799,0,1.5215-0.3825t1.1135-1.0115l0.748,0.629q-1.105,1.683-3.4,1.683q-1.802-0.017-2.8815-1.173t-1.0965-2.975q0-1.768,1.1135-2.9325t2.8135-1.1815z M75.4154,7.548l1.02,0l0,12.852l-1.02,0l0-12.852z M79.1792,16.473q0,1.411,0.884,2.312t2.227,0.901q1.394,0,2.2525-0.918t0.8585-2.295q0-1.36-0.85-2.278t-2.278-0.935q-1.377,0-2.227,0.918t-0.867,2.295z M82.2902,12.342q1.802,0,2.958,1.173t1.173,2.958q0,1.819-1.1815,2.9665t-2.9495,1.1645q-1.853-0.017-2.9835-1.19t-1.1475-2.941q0-1.819,1.1645-2.9665t2.9665-1.1645z M88.672,16.473q0,1.343,0.952,2.261t2.329,0.952q1.377,0,2.2355-0.9095t0.8755-2.3035q0-1.36-0.85-2.278t-2.278-0.935q-1.377,0-2.312,0.935t-0.952,2.278z M91.953,12.342q1.802,0,2.958,1.1645t1.173,2.9665q0,1.802-1.156,2.958t-2.975,1.173q-1.003,0-1.8615-0.425t-1.2835-1.156l-0.034,0l0,5.253l-1.02,0l0-11.73l1.02,0l0,1.377l0.034,0q0.408-0.714,1.275-1.1475t1.87-0.4335z M103.7918,15.81q0-1.071-0.799-1.8105t-1.938-0.7395q-1.105,0-1.904,0.7395t-0.935,1.8105l5.576,0z M101.1228,12.342q1.632,0,2.652,1.054t1.037,2.72l0,0.612l-6.596,0q0.068,1.326,0.8755,2.1335t2.0995,0.8245q0.799,0,1.5215-0.3825t1.1135-1.0115l0.748,0.629q-1.105,1.683-3.4,1.683q-1.802-0.017-2.8815-1.173t-1.0965-2.975q0-1.768,1.1135-2.9325t2.8135-1.1815z M109.8676,12.342q0.289,0,0.595,0.085l-0.119,1.003q-0.187-0.068-0.408-0.068q-1.241,0-1.8955,0.765t-0.6545,1.989l0,4.284l-1.02,0l0-5.729q0-0.17-0.085-2.125l1.02,0q0.034,1.173,0.068,1.377q0.884-1.581,2.499-1.581z  M116.6982,16.184l5.525,0l-2.72-6.596z M120.1322,8.364l5.066,12.036l-1.258,0l-1.309-3.196l-6.375,0l-1.36,3.196l-1.173,0l5.253-12.036l1.156,0z M126.616,16.473q0,1.343,0.952,2.261t2.329,0.952q1.377,0,2.2355-0.9095t0.8755-2.3035q0-1.36-0.85-2.278t-2.278-0.935q-1.377,0-2.312,0.935t-0.952,2.278z M129.897,12.342q1.802,0,2.958,1.1645t1.173,2.9665q0,1.802-1.156,2.958t-2.975,1.173q-1.003,0-1.8615-0.425t-1.2835-1.156l-0.034,0l0,5.253l-1.02,0l0-11.73l1.02,0l0,1.377l0.034,0q0.408-0.714,1.275-1.1475t1.87-0.4335z M136.2788,16.473q0,1.343,0.952,2.261t2.329,0.952q1.377,0,2.2355-0.9095t0.8755-2.3035q0-1.36-0.85-2.278t-2.278-0.935q-1.377,0-2.312,0.935t-0.952,2.278z M139.5598,12.342q1.802,0,2.958,1.1645t1.173,2.9665q0,1.802-1.156,2.958t-2.975,1.173q-1.003,0-1.8615-0.425t-1.2835-1.156l-0.034,0l0,5.253l-1.02,0l0-11.73l1.02,0l0,1.377l0.034,0q0.408-0.714,1.275-1.1475t1.87-0.4335z M148.7466,12.342q0.289,0,0.595,0.085l-0.119,1.003q-0.187-0.068-0.408-0.068q-1.241,0-1.8955,0.765t-0.6545,1.989l0,4.284l-1.02,0l0-5.729q0-0.17-0.085-2.125l1.02,0q0.034,1.173,0.068,1.377q0.884-1.581,2.499-1.581z M156.3354,15.81q0-1.071-0.799-1.8105t-1.938-0.7395q-1.105,0-1.904,0.7395t-0.935,1.8105l5.576,0z M153.6664,12.342q1.632,0,2.652,1.054t1.037,2.72l0,0.612l-6.596,0q0.068,1.326,0.8755,2.1335t2.0995,0.8245q0.799,0,1.5215-0.3825t1.1135-1.0115l0.748,0.629q-1.105,1.683-3.4,1.683q-1.802-0.017-2.8815-1.173t-1.0965-2.975q0-1.768,1.1135-2.9325t2.8135-1.1815z M162.6492,12.342q1.53,0,2.2525,0.8245t0.7395,2.5925l0,4.641l-1.02,0l0-4.59q0-1.309-0.4845-1.9295t-1.4875-0.6205q-1.241,0-1.972,0.8585t-0.748,2.3885l0,3.893l-1.02,0l0-5.729q-0.017-0.493-0.085-2.125l1.02,0q0.034,1.343,0.068,1.377l0.051,0q0.34-0.714,1.0795-1.1475t1.6065-0.4335z M168.215,10.285l1.02,0l0,2.261l2.244,0l0,0.918l-2.244,0l0,5.134q0,0.493,0.289,0.7905t0.799,0.2975q0.561,0,1.156-0.272l0.085,0.918q-0.765,0.272-1.343,0.272q-1.003,0-1.5045-0.561t-0.5015-1.445l0-5.134l-1.7,0l0-0.918l1.7,0l0-2.261z M172.7438,12.546l1.02,0l0,7.854l-1.02,0l0-7.854z M173.2538,8.67q0.34,0,0.5525,0.221t0.2125,0.544t-0.2125,0.544t-0.5525,0.221q-0.323,0-0.544-0.221t-0.221-0.544t0.221-0.544t0.544-0.221z M179.6186,12.342q1.7,0,2.924,1.36l-0.816,0.612q-0.986-1.054-2.125-1.054q-1.326,0-2.2015,0.901t-0.8925,2.312q0,1.411,0.884,2.3035t2.21,0.9095q1.258,0,2.125-1.088l0.782,0.646q-1.139,1.343-2.89,1.36q-1.785,0-2.941-1.156t-1.19-2.975q0-1.751,1.1475-2.924t2.9835-1.207z M189.5364,15.81q0-1.071-0.799-1.8105t-1.938-0.7395q-1.105,0-1.904,0.7395t-0.935,1.8105l5.576,0z M186.8674,12.342q1.632,0,2.652,1.054t1.037,2.72l0,0.612l-6.596,0q0.068,1.326,0.8755,2.1335t2.0995,0.8245q0.799,0,1.5215-0.3825t1.1135-1.0115l0.748,0.629q-1.105,1.683-3.4,1.683q-1.802-0.017-2.8815-1.173t-1.0965-2.975q0-1.768,1.1135-2.9325t2.8135-1.1815z  M197.54,8.364l7.327,10.54l0.034,0l0-10.54l1.122,0l0,12.036l-1.445,0l-7.327-10.54l-0.034,0l0,10.54l-1.122,0l0-12.036l1.445,0z M214.4618,15.81q0-1.071-0.799-1.8105t-1.938-0.7395q-1.105,0-1.904,0.7395t-0.935,1.8105l5.576,0z M211.7928,12.342q1.632,0,2.652,1.054t1.037,2.72l0,0.612l-6.596,0q0.068,1.326,0.8755,2.1335t2.0995,0.8245q0.799,0,1.5215-0.3825t1.1135-1.0115l0.748,0.629q-1.105,1.683-3.4,1.683q-1.802-0.017-2.8815-1.173t-1.0965-2.975q0-1.768,1.1135-2.9325t2.8135-1.1815z M217.6136,10.285l1.02,0l0,2.261l2.244,0l0,0.918l-2.244,0l0,5.134q0,0.493,0.289,0.7905t0.799,0.2975q0.561,0,1.156-0.272l0.085,0.918q-0.765,0.272-1.343,0.272q-1.003,0-1.5045-0.561t-0.5015-1.445l0-5.134l-1.7,0l0-0.918l1.7,0l0-2.261z M221.9894,12.546l1.904,6.579l0.034,0l2.193-6.579l0.969,0l2.329,6.579l0.034,0l1.853-6.579l1.02,0l-2.312,7.854l-1.054,0l-2.346-6.426l-0.034,0l-2.193,6.426l-1.054,0l-2.465-7.854l1.122,0z M233.7942,16.473q0,1.411,0.884,2.312t2.227,0.901q1.394,0,2.2525-0.918t0.8585-2.295q0-1.36-0.85-2.278t-2.278-0.935q-1.377,0-2.227,0.918t-0.867,2.295z M236.9052,12.342q1.802,0,2.958,1.173t1.173,2.958q0,1.819-1.1815,2.9665t-2.9495,1.1645q-1.853-0.017-2.9835-1.19t-1.1475-2.941q0-1.819,1.1645-2.9665t2.9665-1.1645z M246.092,12.342q0.289,0,0.595,0.085l-0.119,1.003q-0.187-0.068-0.408-0.068q-1.241,0-1.8955,0.765t-0.6545,1.989l0,4.284l-1.02,0l0-5.729q0-0.17-0.085-2.125l1.02,0q0.034,1.173,0.068,1.377q0.884-1.581,2.499-1.581z M247.5268,7.548l1.02,0l0,8.568l3.893-3.57l1.496,0l-4.063,3.604l4.522,4.25l-1.547,0l-4.301-4.148l0,4.148l-1.02,0l0-12.852z"></path></svg>
</defs><use id="SvgjsUse1052" xlink:href="#t1496586692398" fill="#ffffff" x="30.29059600830078" y="110.2044677734375"></use><use id="SvgjsUse1053" xlink:href="#s1496586692398" fill="#ffffff" y="207.6188268661499" x="52.76009941101074"></use><use id="SvgjsUse1054" xlink:href="#a1496586692398" fill="#ffffff" x="125" y="34.937575817108154"></use></svg>